<?xml version="1.0" encoding="UTF-8"?>
<!DOCTYPE svg PUBLIC "-//W3C//DTD SVG 1.1//EN" "http://www.w3.org/Graphics/SVG/1.1/DTD/svg11.dtd">
<svg xmlns="http://www.w3.org/2000/svg" version="1.1" width="500px" height="500px" style="shape-rendering:geometricPrecision; text-rendering:geometricPrecision; image-rendering:optimizeQuality; fill-rule:evenodd; clip-rule:evenodd" xmlns:xlink="http://www.w3.org/1999/xlink">
<g><path style="opacity:1" fill="#0f2b05" d="M -0.5,-0.5 C 166.167,-0.5 332.833,-0.5 499.5,-0.5C 499.5,166.167 499.5,332.833 499.5,499.5C 332.833,499.5 166.167,499.5 -0.5,499.5C -0.5,332.833 -0.5,166.167 -0.5,-0.5 Z"/></g>
<g><path style="opacity:1" fill="#112e09" d="M 219.5,137.5 C 219.167,136.833 218.833,136.167 218.5,135.5C 217.778,135.918 217.278,136.584 217,137.5C 215.375,136.588 214.541,137.255 214.5,139.5C 214.167,140.833 213.833,142.167 213.5,143.5C 212.542,141.698 211.875,139.698 211.5,137.5C 210.771,132.87 210.437,128.203 210.5,123.5C 212.556,116.936 215.723,110.936 220,105.5C 222.016,103.316 224.183,101.316 226.5,99.5C 227.937,111.876 226.437,123.876 222,135.5C 221.292,136.381 220.458,137.047 219.5,137.5 Z"/></g>
<g><path style="opacity:1" fill="#a0b896" d="M 191.5,103.5 C 191.5,104.167 191.167,104.5 190.5,104.5C 190.103,103.475 189.437,103.308 188.5,104C 187.672,105.992 186.339,107.492 184.5,108.5C 185.435,106.139 186.768,103.972 188.5,102C 189.998,101.415 190.998,101.915 191.5,103.5 Z"/></g>
<g><path style="opacity:1" fill="#132f0b" d="M 190.5,104.5 C 190.5,107.833 190.5,111.167 190.5,114.5C 190.303,118.622 189.47,122.622 188,126.5C 184.823,131.528 181.656,136.528 178.5,141.5C 178.167,142.167 177.833,142.833 177.5,143.5C 176.307,143.03 175.64,142.03 175.5,140.5C 176.729,136.745 177.895,133.078 179,129.5C 176.962,132.243 175.462,135.243 174.5,138.5C 172.833,137.5 171.5,136.167 170.5,134.5C 170.5,132.833 170.5,131.167 170.5,129.5C 172.071,127.365 173.404,125.032 174.5,122.5C 177.47,117.537 180.804,112.87 184.5,108.5C 186.339,107.492 187.672,105.992 188.5,104C 189.437,103.308 190.103,103.475 190.5,104.5 Z"/></g>
<g><path style="opacity:1" fill="#546f4b" d="M 191.5,103.5 C 192.833,107.833 192.833,112.167 191.5,116.5C 191.672,115.508 191.338,114.842 190.5,114.5C 190.5,111.167 190.5,107.833 190.5,104.5C 191.167,104.5 191.5,104.167 191.5,103.5 Z"/></g>
<g><path style="opacity:1" fill="#122f0a" d="M 154.5,116.5 C 154.427,118.027 155.094,119.027 156.5,119.5C 156.427,121.027 157.094,122.027 158.5,122.5C 158.738,124.404 159.738,125.738 161.5,126.5C 162.419,129.089 164.086,131.089 166.5,132.5C 169.536,135.243 171.536,138.576 172.5,142.5C 173.423,146.064 173.756,149.731 173.5,153.5C 173.251,156.002 172.917,158.502 172.5,161C 172.392,162.681 171.725,163.848 170.5,164.5C 168.291,159.619 164.957,155.619 160.5,152.5C 155.138,148.791 151.472,143.791 149.5,137.5C 148.593,131.894 148.26,126.227 148.5,120.5C 147.487,113.466 149.487,112.132 154.5,116.5 Z"/></g>
<g><path style="opacity:1" fill="#a6be9d" d="M 184.5,108.5 C 180.804,112.87 177.47,117.537 174.5,122.5C 173.508,122.672 172.842,122.338 172.5,121.5C 175.792,116.54 179.792,112.207 184.5,108.5 Z"/></g>
<g><path style="opacity:1" fill="#92ab89" d="M 154.5,116.5 C 155.906,116.973 156.573,117.973 156.5,119.5C 155.094,119.027 154.427,118.027 154.5,116.5 Z"/></g>
<g><path style="opacity:1" fill="#96af8d" d="M 156.5,119.5 C 157.906,119.973 158.573,120.973 158.5,122.5C 157.094,122.027 156.427,121.027 156.5,119.5 Z"/></g>
<g><path style="opacity:1" fill="#859e7c" d="M 158.5,122.5 C 160.262,123.262 161.262,124.596 161.5,126.5C 159.738,125.738 158.738,124.404 158.5,122.5 Z"/></g>
<g><path style="opacity:1" fill="#758e6c" d="M 182.5,122.5 C 183.334,124.263 182.834,125.93 181,127.5C 180.878,125.718 181.378,124.052 182.5,122.5 Z"/></g>
<g><path style="opacity:1" fill="#66805c" d="M 172.5,121.5 C 172.842,122.338 173.508,122.672 174.5,122.5C 173.404,125.032 172.071,127.365 170.5,129.5C 169.36,126.429 170.027,123.762 172.5,121.5 Z"/></g>
<g><path style="opacity:1" fill="#809976" d="M 176.5,125.5 C 177.239,125.369 177.906,125.536 178.5,126C 177,127.5 175.5,129 174,130.5C 174.058,128.565 174.891,126.898 176.5,125.5 Z"/></g>
<g><path style="opacity:1" fill="#a6be9d" d="M 214.5,146.5 C 215.167,144.833 215.833,143.167 216.5,141.5C 218.262,140.738 219.262,139.404 219.5,137.5C 220.458,137.047 221.292,136.381 222,135.5C 226.437,123.876 227.937,111.876 226.5,99.5C 224.183,101.316 222.016,103.316 220,105.5C 215.723,110.936 212.556,116.936 210.5,123.5C 209.25,123.577 208.417,124.244 208,125.5C 207.601,125.272 207.435,124.938 207.5,124.5C 211.624,114.426 217.624,105.593 225.5,98C 226.449,97.3828 227.282,97.5494 228,98.5C 230.472,113.373 228.139,127.373 221,140.5C 218.963,142.706 216.797,144.706 214.5,146.5 Z"/></g>
<g><path style="opacity:1" fill="#758f6b" d="M 161.5,126.5 C 163.736,127.389 165.736,128.722 167.5,130.5C 168.417,129.873 169.417,129.539 170.5,129.5C 170.5,131.167 170.5,132.833 170.5,134.5C 169.733,133.828 169.066,132.995 168.5,132C 167.563,131.308 166.897,131.475 166.5,132.5C 164.086,131.089 162.419,129.089 161.5,126.5 Z"/></g>
<g><path style="opacity:1" fill="#122e0a" d="M 256.5,129.5 C 264.744,131.374 273.078,132.707 281.5,133.5C 281.67,134.822 281.337,135.989 280.5,137C 276.991,139.03 273.658,141.196 270.5,143.5C 267.215,143.928 264.215,144.928 261.5,146.5C 258.517,146.898 255.517,147.232 252.5,147.5C 247.098,146.507 241.764,146.007 236.5,146C 237.167,145.667 237.833,145.333 238.5,145C 236.065,144.147 233.731,143.147 231.5,142C 233.087,141.138 234.754,140.471 236.5,140C 233.835,137.9 231.668,138.4 230,141.5C 229.851,138.804 231.018,136.804 233.5,135.5C 234.815,134.524 236.148,133.524 237.5,132.5C 238.167,132.833 238.833,133.167 239.5,133.5C 241.22,132.066 243.22,131.233 245.5,131C 245.167,130.667 244.833,130.333 244.5,130C 248.486,129.501 252.486,129.334 256.5,129.5 Z"/></g>
<g><path style="opacity:1" fill="#a5be9c" d="M 154.5,116.5 C 149.487,112.132 147.487,113.466 148.5,120.5C 146.862,124.913 145.862,129.579 145.5,134.5C 144.927,126.977 145.76,119.644 148,112.5C 151.36,111.605 153.527,112.939 154.5,116.5 Z"/></g>
<g><path style="opacity:1" fill="#637d5a" d="M 148.5,120.5 C 148.26,126.227 148.593,131.894 149.5,137.5C 148.833,137.833 148.167,138.167 147.5,138.5C 146.326,137.486 145.66,136.153 145.5,134.5C 145.862,129.579 146.862,124.913 148.5,120.5 Z"/></g>
<g><path style="opacity:1" fill="#738c69" d="M 190.5,114.5 C 191.338,114.842 191.672,115.508 191.5,116.5C 190.837,126.55 187.17,135.217 180.5,142.5C 180.158,141.662 179.492,141.328 178.5,141.5C 181.656,136.528 184.823,131.528 188,126.5C 189.47,122.622 190.303,118.622 190.5,114.5 Z"/></g>
<g><path style="opacity:1" fill="#6d8663" d="M 251.5,126.5 C 250.737,127.268 249.737,127.768 248.5,128C 251.365,128.183 254.031,128.683 256.5,129.5C 252.486,129.334 248.486,129.501 244.5,130C 244.833,130.333 245.167,130.667 245.5,131C 243.22,131.233 241.22,132.066 239.5,133.5C 238.833,133.167 238.167,132.833 237.5,132.5C 236.148,133.524 234.815,134.524 233.5,135.5C 233.167,134.833 232.833,134.167 232.5,133.5C 237.479,127.837 243.813,125.503 251.5,126.5 Z"/></g>
<g><path style="opacity:1" fill="#768f6c" d="M 218.5,135.5 C 219.821,130.942 220.654,126.276 221,121.5C 222.086,126.632 221.252,131.299 218.5,135.5 Z"/></g>
<g><path style="opacity:1" fill="#7b9471" d="M 210.5,123.5 C 210.437,128.203 210.771,132.87 211.5,137.5C 210.508,137.328 209.842,137.662 209.5,138.5C 207.912,136.473 207.412,134.139 208,131.5C 208.333,132.167 208.667,132.833 209,133.5C 209.484,131.087 209.15,128.754 208,126.5C 207.667,127.833 207.333,129.167 207,130.5C 206.211,128.288 206.378,126.288 207.5,124.5C 207.435,124.938 207.601,125.272 208,125.5C 208.417,124.244 209.25,123.577 210.5,123.5 Z"/></g>
<g><path style="opacity:1" fill="#b1c9a8" d="M 170.5,134.5 C 171.5,136.167 172.833,137.5 174.5,138.5C 174.34,140.153 173.674,141.486 172.5,142.5C 171.536,138.576 169.536,135.243 166.5,132.5C 166.897,131.475 167.563,131.308 168.5,132C 169.066,132.995 169.733,133.828 170.5,134.5 Z"/></g>
<g><path style="opacity:1" fill="#657f5c" d="M 242.5,134.5 C 246.182,134.335 249.848,134.501 253.5,135C 247.785,135.789 242.118,136.456 236.5,137C 238.611,136.155 240.611,135.322 242.5,134.5 Z"/></g>
<g><path style="opacity:1" fill="#395430" d="M 218.5,135.5 C 218.833,136.167 219.167,136.833 219.5,137.5C 219.262,139.404 218.262,140.738 216.5,141.5C 216.5,140.167 215.833,139.5 214.5,139.5C 214.541,137.255 215.375,136.588 217,137.5C 217.278,136.584 217.778,135.918 218.5,135.5 Z"/></g>
<g><path style="opacity:1" fill="#a4bc9b" d="M 251.5,126.5 C 262.039,129.134 272.706,131.134 283.5,132.5C 281.962,138.374 278.296,142.374 272.5,144.5C 272.158,143.662 271.492,143.328 270.5,143.5C 273.658,141.196 276.991,139.03 280.5,137C 281.337,135.989 281.67,134.822 281.5,133.5C 273.078,132.707 264.744,131.374 256.5,129.5C 254.031,128.683 251.365,128.183 248.5,128C 249.737,127.768 250.737,127.268 251.5,126.5 Z"/></g>
<g><path style="opacity:1" fill="#6e8864" d="M 164.5,137.5 C 166.446,138.254 167.279,139.588 167,141.5C 165.519,140.529 164.685,139.196 164.5,137.5 Z"/></g>
<g><path style="opacity:1" fill="#acc3a2" d="M 149.5,137.5 C 151.472,143.791 155.138,148.791 160.5,152.5C 159.508,152.328 158.842,152.662 158.5,153.5C 155.899,150.396 153.066,147.396 150,144.5C 148.878,142.593 148.045,140.593 147.5,138.5C 148.167,138.167 148.833,137.833 149.5,137.5 Z"/></g>
<g><path style="opacity:1" fill="#b3cbaa" d="M 178.5,141.5 C 179.492,141.328 180.158,141.662 180.5,142.5C 178.109,144.615 176.776,147.281 176.5,150.5C 175.102,147.993 175.436,145.66 177.5,143.5C 177.833,142.833 178.167,142.167 178.5,141.5 Z"/></g>
<g><path style="opacity:1" fill="#5d7753" d="M 171.5,152.5 C 170.833,153.167 170.167,153.833 169.5,154.5C 169.594,150.991 169.427,147.325 169,143.5C 170.302,146.375 171.135,149.375 171.5,152.5 Z"/></g>
<g><path style="opacity:1" fill="#5e7855" d="M 270.5,143.5 C 271.492,143.328 272.158,143.662 272.5,144.5C 268.902,146.74 264.902,148.074 260.5,148.5C 260.918,147.778 261.584,147.278 262.5,147C 262.272,146.601 261.938,146.435 261.5,146.5C 264.215,144.928 267.215,143.928 270.5,143.5 Z"/></g>
<g><path style="opacity:1" fill="#637d59" d="M 177.5,143.5 C 175.436,145.66 175.102,147.993 176.5,150.5C 176.784,152.415 176.451,154.081 175.5,155.5C 175.5,154.167 174.833,153.5 173.5,153.5C 173.756,149.731 173.423,146.064 172.5,142.5C 173.674,141.486 174.34,140.153 174.5,138.5C 175.462,135.243 176.962,132.243 179,129.5C 177.895,133.078 176.729,136.745 175.5,140.5C 175.64,142.03 176.307,143.03 177.5,143.5 Z"/></g>
<g><path style="opacity:1" fill="#a3bb9a" d="M 173.5,153.5 C 174.833,153.5 175.5,154.167 175.5,155.5C 173.942,165.419 172.942,175.419 172.5,185.5C 171.532,183.393 171.198,181.059 171.5,178.5C 171.717,173.77 171.383,169.103 170.5,164.5C 171.725,163.848 172.392,162.681 172.5,161C 172.917,158.502 173.251,156.002 173.5,153.5 Z"/></g>
<g><path style="opacity:1" fill="#67815d" d="M 160.5,152.5 C 164.957,155.619 168.291,159.619 170.5,164.5C 165.202,162.2 161.202,158.533 158.5,153.5C 158.842,152.662 159.508,152.328 160.5,152.5 Z"/></g>
<g><path style="opacity:1" fill="#a2ba99" d="M 171.5,152.5 C 171.665,155.518 171.498,158.518 171,161.5C 170.56,159.134 170.06,156.801 169.5,154.5C 170.167,153.833 170.833,153.167 171.5,152.5 Z"/></g>
<g><path style="opacity:1" fill="#122e0a" d="M 213.5,167.5 C 213.336,170.187 213.503,172.854 214,175.5C 215.316,172.312 215.816,168.978 215.5,165.5C 216.496,165.414 217.329,165.748 218,166.5C 218.543,169.868 218.376,173.201 217.5,176.5C 215.199,179.81 212.866,183.143 210.5,186.5C 210.541,178.972 210.207,171.305 209.5,163.5C 209.938,162.494 210.604,162.494 211.5,163.5C 212.705,164.577 213.372,165.91 213.5,167.5 Z"/></g>
<g><path style="opacity:1" fill="#a1ba98" d="M 232.5,133.5 C 232.833,134.167 233.167,134.833 233.5,135.5C 231.018,136.804 229.851,138.804 230,141.5C 231.668,138.4 233.835,137.9 236.5,140C 234.754,140.471 233.087,141.138 231.5,142C 233.731,143.147 236.065,144.147 238.5,145C 237.833,145.333 237.167,145.667 236.5,146C 241.764,146.007 247.098,146.507 252.5,147.5C 255.517,147.232 258.517,146.898 261.5,146.5C 261.938,146.435 262.272,146.601 262.5,147C 261.584,147.278 260.918,147.778 260.5,148.5C 255.151,148.855 249.818,149.022 244.5,149C 238.233,148.033 232.233,146.2 226.5,143.5C 220.134,146.364 214.134,149.864 208.5,154C 206.388,154.906 205.555,156.406 206,158.5C 210.667,161.167 215.333,163.833 220,166.5C 221.289,169.351 221.789,172.351 221.5,175.5C 220.691,173.708 220.191,171.708 220,169.5C 219.844,172.191 219.011,174.524 217.5,176.5C 218.376,173.201 218.543,169.868 218,166.5C 217.329,165.748 216.496,165.414 215.5,165.5C 214.833,166.167 214.167,166.833 213.5,167.5C 213.372,165.91 212.705,164.577 211.5,163.5C 210.604,162.494 209.938,162.494 209.5,163.5C 210.207,171.305 210.541,178.972 210.5,186.5C 211.492,186.328 212.158,186.662 212.5,187.5C 210.124,190.401 208.291,190.068 207,186.5C 206.608,180.722 206.942,175.056 208,169.5C 200.373,173.629 192.206,176.129 183.5,177C 181.93,178.397 180.596,179.897 179.5,181.5C 179.5,180.833 179.167,180.5 178.5,180.5C 182.591,175.979 185.924,170.979 188.5,165.5C 190.346,155.798 196.013,151.965 205.5,154C 207.609,152.859 209.442,151.359 211,149.5C 211.256,145.754 210.756,142.087 209.5,138.5C 209.842,137.662 210.508,137.328 211.5,137.5C 211.875,139.698 212.542,141.698 213.5,143.5C 213.586,144.496 213.252,145.329 212.5,146C 213.094,146.464 213.761,146.631 214.5,146.5C 213.537,147.363 213.537,148.03 214.5,148.5C 218.332,145.75 222.332,143.25 226.5,141C 228.159,138.156 230.159,135.656 232.5,133.5 Z"/></g>
<g><path style="opacity:1" fill="#132f0c" d="M 202.5,160.5 C 205.887,160.716 207.887,162.55 208.5,166C 208.241,167.261 207.574,168.261 206.5,169C 199.919,172.882 192.919,174.382 185.5,173.5C 187.076,171.021 188.076,168.354 188.5,165.5C 190.677,160.837 194.01,157.171 198.5,154.5C 202.099,155.37 203.433,157.37 202.5,160.5 Z"/></g>
<g><path style="opacity:1" fill="#6e8764" d="M 202.5,160.5 C 201.738,162.262 200.404,163.262 198.5,163.5C 199.262,161.738 200.596,160.738 202.5,160.5 Z"/></g>
<g><path style="opacity:1" fill="#829b78" d="M 197.5,157.5 C 198.239,157.369 198.906,157.536 199.5,158C 197.667,159.833 195.833,161.667 194,163.5C 193.333,162.833 193.333,162.167 194,161.5C 195.376,160.295 196.542,158.962 197.5,157.5 Z"/></g>
<g><path style="opacity:1" fill="#3e5934" d="M 216.5,141.5 C 215.833,143.167 215.167,144.833 214.5,146.5C 213.761,146.631 213.094,146.464 212.5,146C 213.252,145.329 213.586,144.496 213.5,143.5C 214.5,142.833 215.5,142.167 216.5,141.5 Z"/></g>
<g><path style="opacity:1" fill="#9eb695" d="M 214.5,139.5 C 215.833,139.5 216.5,140.167 216.5,141.5C 215.5,142.167 214.5,142.833 213.5,143.5C 213.833,142.167 214.167,140.833 214.5,139.5 Z"/></g>
<g><path style="opacity:1" fill="#122e0a" d="M 163.5,187.5 C 163.167,187.5 162.833,187.5 162.5,187.5C 163.3,189.573 164.633,191.24 166.5,192.5C 159.449,192.59 152.449,193.256 145.5,194.5C 143.488,194.16 141.488,193.827 139.5,193.5C 131.994,185.979 129.328,176.979 131.5,166.5C 139.116,173.105 147.782,177.938 157.5,181C 160.409,182.406 162.409,184.572 163.5,187.5 Z"/></g>
<g><path style="opacity:1" fill="#56704c" d="M 215.5,165.5 C 215.816,168.978 215.316,172.312 214,175.5C 213.503,172.854 213.336,170.187 213.5,167.5C 214.167,166.833 214.833,166.167 215.5,165.5 Z"/></g>
<g><path style="opacity:1" fill="#819a77" d="M 198.5,163.5 C 195.997,167.547 192.664,170.38 188.5,172C 191.432,168.558 194.765,165.725 198.5,163.5 Z"/></g>
<g><path style="opacity:1" fill="#9fb795" d="M 168.5,190.5 C 166.571,189.159 164.904,188.159 163.5,187.5C 162.409,184.572 160.409,182.406 157.5,181C 147.782,177.938 139.116,173.105 131.5,166.5C 129.328,176.979 131.994,185.979 139.5,193.5C 135.183,191.347 132.016,188.014 130,183.5C 129.037,177.535 128.537,171.535 128.5,165.5C 130.199,165.34 131.866,165.506 133.5,166C 136.319,168.575 139.319,170.908 142.5,173C 151.938,175.3 160.104,179.8 167,186.5C 167.791,187.745 168.291,189.078 168.5,190.5 Z"/></g>
<g><path style="opacity:1" fill="#496440" d="M 221.5,175.5 C 219.461,180.254 216.461,184.254 212.5,187.5C 212.158,186.662 211.492,186.328 210.5,186.5C 212.866,183.143 215.199,179.81 217.5,176.5C 219.011,174.524 219.844,172.191 220,169.5C 220.191,171.708 220.691,173.708 221.5,175.5 Z"/></g>
<g><path style="opacity:1" fill="#8fa886" d="M 162.5,187.5 C 161.244,187.539 160.244,187.039 159.5,186C 160.998,185.415 161.998,185.915 162.5,187.5 Z"/></g>
<g><path style="opacity:1" fill="#6d8764" d="M 171.5,178.5 C 171.198,181.059 171.532,183.393 172.5,185.5C 172.5,186.5 172.5,187.5 172.5,188.5C 172.631,189.239 172.464,189.906 172,190.5C 171.23,189.402 170.397,189.402 169.5,190.5C 169.851,186.316 170.518,182.316 171.5,178.5 Z"/></g>
<g><path style="opacity:1" fill="#bdd4b4" d="M 178.5,180.5 C 179.167,180.5 179.5,180.833 179.5,181.5C 175.647,187.205 172.314,193.205 169.5,199.5C 168.833,198.5 168.167,197.5 167.5,196.5C 167.158,195.662 166.492,195.328 165.5,195.5C 166.11,194.609 166.443,193.609 166.5,192.5C 164.633,191.24 163.3,189.573 162.5,187.5C 162.833,187.5 163.167,187.5 163.5,187.5C 164.904,188.159 166.571,189.159 168.5,190.5C 168.833,193.167 169.167,193.167 169.5,190.5C 170.397,189.402 171.23,189.402 172,190.5C 172.464,189.906 172.631,189.239 172.5,188.5C 174.488,185.872 176.488,183.205 178.5,180.5 Z"/></g>
<g><path style="opacity:1" fill="#13300c" d="M 199.5,202.5 C 195.487,206.515 191.821,210.848 188.5,215.5C 186.973,215.427 185.973,216.094 185.5,217.5C 183.973,217.427 182.973,218.094 182.5,219.5C 182.158,220.338 181.492,220.672 180.5,220.5C 172.579,222.363 164.912,225.029 157.5,228.5C 156.479,227.998 156.312,227.332 157,226.5C 159.705,223.964 162.205,221.297 164.5,218.5C 162.284,219.203 160.451,220.536 159,222.5C 158.536,221.906 158.369,221.239 158.5,220.5C 156.254,222.649 154.754,225.316 154,228.5C 153.506,226.866 153.34,225.199 153.5,223.5C 154.735,213.941 159.735,207.275 168.5,203.5C 180.128,200.759 191.461,197.093 202.5,192.5C 202.833,193 203.167,193.5 203.5,194C 202.275,196.946 200.942,199.78 199.5,202.5 Z"/></g>
<g><path style="opacity:1" fill="#6f8965" d="M 166.5,192.5 C 166.443,193.609 166.11,194.609 165.5,195.5C 159.163,194.356 152.83,194.356 146.5,195.5C 143.795,195.684 141.462,195.017 139.5,193.5C 141.488,193.827 143.488,194.16 145.5,194.5C 152.449,193.256 159.449,192.59 166.5,192.5 Z"/></g>
<g><path style="opacity:1" fill="#96af8d" d="M 199.5,202.5 C 200.942,199.78 202.275,196.946 203.5,194C 203.167,193.5 202.833,193 202.5,192.5C 191.461,197.093 180.128,200.759 168.5,203.5C 168.158,202.662 167.492,202.328 166.5,202.5C 167.341,200.621 167.675,198.621 167.5,196.5C 168.167,197.5 168.833,198.5 169.5,199.5C 170.274,200.147 171.274,200.48 172.5,200.5C 182.967,198.566 192.967,195.233 202.5,190.5C 204.446,192.044 204.946,194.044 204,196.5C 203.208,199.106 201.708,201.106 199.5,202.5 Z"/></g>
<g><path style="opacity:1" fill="#7d9674" d="M 162.5,210.5 C 164,208.821 165.833,207.488 168,206.5C 167.235,208.844 165.402,210.177 162.5,210.5 Z"/></g>
<g><path style="opacity:1" fill="#9db593" d="M 199.5,202.5 C 198.191,205.778 196.358,208.778 194,211.5C 192.549,213.464 190.716,214.797 188.5,215.5C 191.821,210.848 195.487,206.515 199.5,202.5 Z"/></g>
<g><path style="opacity:1" fill="#59734f" d="M 180.5,210.5 C 182.838,208.496 185.505,207.329 188.5,207C 186.182,208.993 183.516,210.159 180.5,210.5 Z"/></g>
<g><path style="opacity:1" fill="#758e6b" d="M 166.5,202.5 C 167.492,202.328 168.158,202.662 168.5,203.5C 159.735,207.275 154.735,213.941 153.5,223.5C 153.167,223.5 152.833,223.5 152.5,223.5C 153.39,221.218 153.556,218.885 153,216.5C 151.734,220.395 151.234,224.395 151.5,228.5C 149.183,215.818 154.183,207.151 166.5,202.5 Z"/></g>
<g><path style="opacity:1" fill="#718a67" d="M 162.5,210.5 C 161.542,211.962 160.376,213.295 159,214.5C 158.832,212.159 159.999,210.826 162.5,210.5 Z"/></g>
<g><path style="opacity:1" fill="#7b9472" d="M 180.5,210.5 C 177.912,212.625 174.912,213.958 171.5,214.5C 174.088,212.375 177.088,211.042 180.5,210.5 Z"/></g>
<g><path style="opacity:1" fill="#aec6a5" d="M 371.5,212.5 C 372.478,212.811 373.145,213.478 373.5,214.5C 371.183,218.09 367.849,219.423 363.5,218.5C 363.643,216.738 363.309,215.071 362.5,213.5C 365.75,211.972 369.083,210.639 372.5,209.5C 375.492,209.98 376.659,211.647 376,214.5C 375.165,211.731 373.665,211.065 371.5,212.5 Z"/></g>
<g><path style="opacity:1" fill="#1a3612" d="M 371.5,212.5 C 370.962,216.518 368.795,217.851 365,216.5C 364.383,215.551 364.549,214.718 365.5,214C 367.436,213.187 369.436,212.687 371.5,212.5 Z"/></g>
<g><path style="opacity:1" fill="#93ab89" d="M 171.5,214.5 C 169.337,216.083 167.004,217.416 164.5,218.5C 166.052,215.888 168.386,214.555 171.5,214.5 Z"/></g>
<g><path style="opacity:1" fill="#7a9370" d="M 188.5,215.5 C 188.027,216.906 187.027,217.573 185.5,217.5C 185.973,216.094 186.973,215.427 188.5,215.5 Z"/></g>
<g><path style="opacity:1" fill="#abc3a2" d="M 363.5,230.5 C 363.5,237.5 363.5,244.5 363.5,251.5C 357.377,296.793 332.71,326.96 289.5,342C 276.734,345.514 263.734,347.014 250.5,346.5C 250.5,347.833 250.5,349.167 250.5,350.5C 251.822,350.33 252.989,350.663 254,351.5C 254.145,363.447 253.312,363.447 251.5,351.5C 249.904,353.864 248.738,356.53 248,359.5C 247.523,354.738 248.023,350.071 249.5,345.5C 241.212,345.759 233.212,344.426 225.5,341.5C 225.323,343.981 226.323,345.814 228.5,347C 227.328,347.353 226.162,347.187 225,346.5C 223.606,347.613 222.439,348.947 221.5,350.5C 221.167,350.167 220.833,349.833 220.5,349.5C 222.475,346.626 223.142,343.626 222.5,340.5C 198.93,330.759 180.43,315.092 167,293.5C 166.312,292.668 166.479,292.002 167.5,291.5C 194.725,334.199 233.392,351.032 283.5,342C 333.445,326.378 359.778,292.378 362.5,240C 362.534,224.305 359.034,209.471 352,195.5C 351.035,197.26 349.868,197.594 348.5,196.5C 349.5,195.667 350.5,194.833 351.5,194C 348.612,189.05 345.612,184.217 342.5,179.5C 341.726,178.289 340.893,178.289 340,179.5C 339.355,178.354 338.522,177.354 337.5,176.5C 338.46,175.188 338.294,173.854 337,172.5C 328.65,163.476 319.15,155.976 308.5,150C 309.5,149.333 310.5,149.333 311.5,150C 322.624,156.113 332.29,164.113 340.5,174C 342.906,174.779 344.573,173.946 345.5,171.5C 346.521,172.002 346.688,172.668 346,173.5C 342.355,175.337 342.022,177.337 345,179.5C 345.414,179.043 345.914,178.709 346.5,178.5C 347.833,179.5 349.167,180.5 350.5,181.5C 351.9,179.218 351.234,177.718 348.5,177C 351.125,176.277 352.792,177.277 353.5,180C 352.372,182.296 350.705,184.129 348.5,185.5C 348.919,186.672 349.585,187.672 350.5,188.5C 352.5,187.167 354.5,185.833 356.5,184.5C 356.833,184.833 357.167,185.167 357.5,185.5C 355.807,187.027 353.973,188.36 352,189.5C 351.399,190.965 351.899,191.965 353.5,192.5C 355.5,191.167 357.5,189.833 359.5,188.5C 359.833,188.833 360.167,189.167 360.5,189.5C 358.167,191.333 355.833,193.167 353.5,195C 354.333,196.5 355.5,197.667 357,198.5C 359.465,196.358 361.965,195.024 364.5,194.5C 362.823,196.76 360.657,198.427 358,199.5C 357.202,201.259 357.369,202.926 358.5,204.5C 359.833,203.5 361.167,202.5 362.5,201.5C 363.36,203.931 365.027,205.264 367.5,205.5C 367.703,203.61 367.037,202.11 365.5,201C 366.449,200.383 367.282,200.549 368,201.5C 368.667,203.167 368.667,204.833 368,206.5C 365.328,207.867 362.495,208.867 359.5,209.5C 361.862,216.308 363.195,223.308 363.5,230.5 Z"/></g>
<g><path style="opacity:1" fill="#1c3813" d="M 361.5,203.5 C 363.088,204.635 363.421,205.969 362.5,207.5C 360.358,206.563 360.024,205.23 361.5,203.5 Z"/></g>
<g><path style="opacity:1" fill="#3c5633" d="M 345.5,181.5 C 345.56,180.957 345.893,180.624 346.5,180.5C 348.959,183.77 348.625,184.103 345.5,181.5 Z"/></g>
<g><path style="opacity:1" fill="#5a7450" d="M 158.5,220.5 C 159.802,217.025 162.135,214.858 165.5,214C 163.297,216.372 160.963,218.539 158.5,220.5 Z"/></g>
<g><path style="opacity:1" fill="#758f6c" d="M 185.5,217.5 C 185.027,218.906 184.027,219.573 182.5,219.5C 182.973,218.094 183.973,217.427 185.5,217.5 Z"/></g>
<g><path style="opacity:1" fill="#16330f" d="M 152.5,223.5 C 152.784,225.415 152.451,227.081 151.5,228.5C 151.234,224.395 151.734,220.395 153,216.5C 153.556,218.885 153.39,221.218 152.5,223.5 Z"/></g>
<g><path style="opacity:1" fill="#a7bf9e" d="M 368.5,221.5 C 370.527,221.338 372.527,221.505 374.5,222C 377.216,226.2 375.882,228.7 370.5,229.5C 365.996,227.89 365.329,225.223 368.5,221.5 Z"/></g>
<g><path style="opacity:1" fill="#15320e" d="M 369.5,223.5 C 371.167,223.5 372.833,223.5 374.5,223.5C 374.923,226.243 373.756,227.576 371,227.5C 367.26,227.046 366.76,225.713 369.5,223.5 Z"/></g>
<g><path style="opacity:1" fill="#99b18f" d="M 164.5,218.5 C 162.205,221.297 159.705,223.964 157,226.5C 156.312,227.332 156.479,227.998 157.5,228.5C 164.912,225.029 172.579,222.363 180.5,220.5C 178.572,222.474 176.239,223.974 173.5,225C 166.996,226.722 160.829,229.222 155,232.5C 151.064,242.642 147.731,252.975 145,263.5C 144.333,260.5 144.333,257.5 145,254.5C 147.307,247.245 149.807,240.078 152.5,233C 152.227,231.467 151.894,229.967 151.5,228.5C 152.451,227.081 152.784,225.415 152.5,223.5C 152.833,223.5 153.167,223.5 153.5,223.5C 153.34,225.199 153.506,226.866 154,228.5C 154.754,225.316 156.254,222.649 158.5,220.5C 158.369,221.239 158.536,221.906 159,222.5C 160.451,220.536 162.284,219.203 164.5,218.5 Z"/></g>
<g><path style="opacity:1" fill="#bed5b5" d="M 211.5,228.5 C 212.833,230.833 212.833,233.167 211.5,235.5C 209.589,228.095 205.756,226.762 200,231.5C 197.685,238.715 198.185,245.715 201.5,252.5C 201.957,253.298 202.624,253.631 203.5,253.5C 202.791,254.404 201.791,254.737 200.5,254.5C 196.188,253.931 193.354,251.598 192,247.5C 189.193,231.473 195.693,225.14 211.5,228.5 Z"/></g>
<g><path style="opacity:1" fill="#bed6b5" d="M 227.5,229.5 C 229.149,235.093 230.649,240.76 232,246.5C 232.483,245.552 232.649,244.552 232.5,243.5C 233.167,243.5 233.5,243.833 233.5,244.5C 233.089,247.553 232.423,250.553 231.5,253.5C 229.955,254.452 228.288,254.785 226.5,254.5C 224.96,248.136 223.294,241.802 221.5,235.5C 221.167,234.167 220.833,232.833 220.5,231.5C 220.196,230.85 219.863,230.183 219.5,229.5C 222.199,228.271 224.865,228.271 227.5,229.5 Z"/></g>
<g><path style="opacity:1" fill="#c0d8b7" d="M 236.5,253.5 C 237.655,246.345 237.822,239.012 237,231.5C 236.392,233.154 235.892,234.821 235.5,236.5C 235.5,237.167 235.5,237.833 235.5,238.5C 234.833,238.5 234.5,238.167 234.5,237.5C 233.748,228.524 237.748,225.357 246.5,228C 245.202,232.077 244.536,236.411 244.5,241C 244.536,245.589 245.202,249.923 246.5,254C 242.39,254.806 239.057,254.64 236.5,253.5 Z"/></g>
<g><path style="opacity:1" fill="#c0d7b7" d="M 260.5,245.5 C 260.5,245.167 260.5,244.833 260.5,244.5C 260.037,241.779 259.371,239.112 258.5,236.5C 258.158,235.662 257.492,235.328 256.5,235.5C 257.03,233.076 257.864,230.743 259,228.5C 260.183,227.269 261.349,227.269 262.5,228.5C 265.402,236.372 268.402,244.206 271.5,252C 271.905,252.945 272.572,253.612 273.5,254C 269.5,254.667 265.5,254.667 261.5,254C 262.428,253.612 263.095,252.945 263.5,252C 262.961,249.518 261.961,247.352 260.5,245.5 Z"/></g>
<g><path style="opacity:1" fill="#bed6b5" d="M 284.5,228.5 C 284.5,232.5 284.5,236.5 284.5,240.5C 286.39,240.703 287.89,240.037 289,238.5C 289.805,235.304 289.638,232.304 288.5,229.5C 289.209,228.596 290.209,228.263 291.5,228.5C 297.153,228.944 298.986,231.944 297,237.5C 296.167,239 295,240.167 293.5,241C 294.333,241.833 295.167,242.667 296,243.5C 296.179,246.553 296.679,249.553 297.5,252.5C 298.799,251.91 299.632,250.91 300,249.5C 300.711,251.367 300.211,252.867 298.5,254C 295.773,254.818 293.106,254.652 290.5,253.5C 288.744,249.712 288.078,245.712 288.5,241.5C 287.167,241.5 285.833,241.5 284.5,241.5C 283.945,245.997 284.611,250.164 286.5,254C 281.729,254.826 278.396,254.659 276.5,253.5C 277.493,245.35 277.826,237.017 277.5,228.5C 279.833,228.5 282.167,228.5 284.5,228.5 Z"/></g>
<g><path style="opacity:1" fill="#c1d8b8" d="M 311.5,228.5 C 311.5,232.5 311.5,236.5 311.5,240.5C 313.833,240.5 316.167,240.5 318.5,240.5C 319.483,236.702 319.817,232.702 319.5,228.5C 321.833,228.5 324.167,228.5 326.5,228.5C 325.882,237.27 326.548,245.77 328.5,254C 324.5,254.667 320.5,254.667 316.5,254C 318.389,250.164 319.055,245.997 318.5,241.5C 316.167,241.5 313.833,241.5 311.5,241.5C 310.945,245.997 311.611,250.164 313.5,254C 308.729,254.826 305.396,254.659 303.5,253.5C 304.493,245.35 304.826,237.017 304.5,228.5C 306.833,228.5 309.167,228.5 311.5,228.5 Z"/></g>
<g><path style="opacity:1" fill="#8ea785" d="M 227.5,229.5 C 224.865,228.271 222.199,228.271 219.5,229.5C 219.863,230.183 220.196,230.85 220.5,231.5C 219.167,238.833 219.167,246.167 220.5,253.5C 220.077,254.63 218.743,254.797 216.5,254C 217.798,249.923 218.464,245.589 218.5,241C 218.464,236.411 217.798,232.077 216.5,228C 218.333,227.833 220.167,227.667 222,227.5C 224.295,227.547 226.129,228.213 227.5,229.5 Z"/></g>
<g><path style="opacity:1" fill="#6b8462" d="M 291.5,228.5 C 290.209,228.263 289.209,228.596 288.5,229.5C 287.292,228.766 285.959,228.433 284.5,228.5C 282.167,228.5 279.833,228.5 277.5,228.5C 277.826,237.017 277.493,245.35 276.5,253.5C 277.118,244.73 276.452,236.23 274.5,228C 280.349,227.182 286.015,227.348 291.5,228.5 Z"/></g>
<g><path style="opacity:1" fill="#132f0c" d="M 284.5,228.5 C 285.959,228.433 287.292,228.766 288.5,229.5C 289.638,232.304 289.805,235.304 289,238.5C 287.89,240.037 286.39,240.703 284.5,240.5C 284.5,236.5 284.5,232.5 284.5,228.5 Z"/></g>
<g><path style="opacity:1" fill="#6a8461" d="M 311.5,228.5 C 309.167,228.5 306.833,228.5 304.5,228.5C 304.826,237.017 304.493,245.35 303.5,253.5C 304.118,244.73 303.452,236.23 301.5,228C 306.271,227.174 309.604,227.341 311.5,228.5 Z"/></g>
<g><path style="opacity:1" fill="#708a67" d="M 326.5,228.5 C 324.167,228.5 321.833,228.5 319.5,228.5C 319.817,232.702 319.483,236.702 318.5,240.5C 319.055,236.003 318.389,231.836 316.5,228C 321.271,227.174 324.604,227.341 326.5,228.5 Z"/></g>
<g><path style="opacity:1" fill="#435e3a" d="M 220.5,231.5 C 220.833,232.833 221.167,234.167 221.5,235.5C 220.51,241.31 220.177,247.31 220.5,253.5C 219.167,246.167 219.167,238.833 220.5,231.5 Z"/></g>
<g><path style="opacity:1" fill="#435d39" d="M 236.5,253.5 C 236.822,247.642 236.489,241.975 235.5,236.5C 235.892,234.821 236.392,233.154 237,231.5C 237.822,239.012 237.655,246.345 236.5,253.5 Z"/></g>
<g><path style="opacity:1" fill="#4d6743" d="M 211.5,228.5 C 211.56,227.957 211.893,227.624 212.5,227.5C 213.833,230.5 213.833,233.5 212.5,236.5C 211.893,236.376 211.56,236.043 211.5,235.5C 212.833,233.167 212.833,230.833 211.5,228.5 Z"/></g>
<g><path style="opacity:1" fill="#a9c1a0" d="M 366.5,233.5 C 366.351,234.552 366.517,235.552 367,236.5C 370.744,235.374 374.577,235.207 378.5,236C 375.167,236.667 371.833,237.333 368.5,238C 366.782,242.746 365.782,242.579 365.5,237.5C 365.461,236.417 365.127,235.417 364.5,234.5C 364.957,233.702 365.624,233.369 366.5,233.5 Z"/></g>
<g><path style="opacity:1" fill="#193512" d="M 258.5,236.5 C 259.371,239.112 260.037,241.779 260.5,244.5C 258.396,244.799 256.396,244.466 254.5,243.5C 255.112,240.567 256.445,238.234 258.5,236.5 Z"/></g>
<g><path style="opacity:1" fill="#627b58" d="M 234.5,237.5 C 234.5,238.167 234.833,238.5 235.5,238.5C 235.125,240.698 234.458,242.698 233.5,244.5C 233.5,243.833 233.167,243.5 232.5,243.5C 232.875,241.302 233.542,239.302 234.5,237.5 Z"/></g>
<g><path style="opacity:1" fill="#718a67" d="M 363.5,230.5 C 364.5,231.5 365.5,232.5 366.5,233.5C 365.624,233.369 364.957,233.702 364.5,234.5C 365.127,235.417 365.461,236.417 365.5,237.5C 364.833,242.167 364.167,246.833 363.5,251.5C 363.5,244.5 363.5,237.5 363.5,230.5 Z"/></g>
<g><path style="opacity:1" fill="#91aa88" d="M 256.5,235.5 C 257.492,235.328 258.158,235.662 258.5,236.5C 256.445,238.234 255.112,240.567 254.5,243.5C 256.396,244.466 258.396,244.799 260.5,244.5C 260.5,244.833 260.5,245.167 260.5,245.5C 255.031,244.4 252.031,246.567 251.5,252C 251.905,252.945 252.572,253.612 253.5,254C 251.5,254.667 249.5,254.667 247.5,254C 248.416,253.626 249.25,253.126 250,252.5C 251.704,246.539 253.871,240.872 256.5,235.5 Z"/></g>
<g><path style="opacity:1" fill="#a3bb9a" d="M 206.5,254.5 C 206.5,254.167 206.5,253.833 206.5,253.5C 209.587,251.579 211.754,248.913 213,245.5C 213.498,248.482 213.665,251.482 213.5,254.5C 211.167,254.5 208.833,254.5 206.5,254.5 Z"/></g>
<g><path style="opacity:1" fill="#91aa88" d="M 370.5,249.5 C 372.167,249.5 373.833,249.5 375.5,249.5C 376.022,256.136 376.855,256.136 378,249.5C 380.758,253.955 379.592,256.288 374.5,256.5C 369.589,256.409 368.256,254.075 370.5,249.5 Z"/></g>
<g><path style="opacity:1" fill="#0f2b05" d="M 371.5,251.5 C 373.465,251.948 373.798,252.948 372.5,254.5C 371.614,253.675 371.281,252.675 371.5,251.5 Z"/></g>
<g><path style="opacity:1" fill="#4b6641" d="M 203.5,253.5 C 204.5,253.5 205.5,253.5 206.5,253.5C 206.5,253.833 206.5,254.167 206.5,254.5C 204.5,255.833 202.5,255.833 200.5,254.5C 201.791,254.737 202.791,254.404 203.5,253.5 Z"/></g>
<g><path style="opacity:1" fill="#a3bc9a" d="M 369.5,260.5 C 373.911,260.021 378.078,260.688 382,262.5C 382.667,263.833 382.667,265.167 382,266.5C 381.282,267.451 380.449,267.617 379.5,267C 380.747,265.506 380.747,264.006 379.5,262.5C 378.756,263.991 378.09,265.491 377.5,267C 370.808,269.121 368.141,266.955 369.5,260.5 Z"/></g>
<g><path style="opacity:1" fill="#15310e" d="M 370.5,262.5 C 372.527,262.338 374.527,262.505 376.5,263C 376.957,263.414 377.291,263.914 377.5,264.5C 375.257,265.474 372.924,265.808 370.5,265.5C 370.5,264.5 370.5,263.5 370.5,262.5 Z"/></g>
<g><path style="opacity:1" fill="#aac1a1" d="M 231.5,267.5 C 237.986,265.835 240.819,268.168 240,274.5C 238.211,276.229 236.044,276.896 233.5,276.5C 233.799,278.604 233.466,280.604 232.5,282.5C 231.506,277.544 231.173,272.544 231.5,267.5 Z"/></g>
<g><path style="opacity:1" fill="#93ac8a" d="M 259.5,267.5 C 261.337,267.639 261.67,268.306 260.5,269.5C 259.702,269.043 259.369,268.376 259.5,267.5 Z"/></g>
<g><path style="opacity:1" fill="#acc4a3" d="M 285.5,268.5 C 287.026,269.105 288.026,270.271 288.5,272C 287.167,275.333 287.167,278.667 288.5,282C 287.552,282.483 286.552,282.649 285.5,282.5C 286.029,278.649 285.362,275.149 283.5,272C 284.973,271.29 285.64,270.124 285.5,268.5 Z"/></g>
<g><path style="opacity:1" fill="#0f2b06" d="M 233.5,269.5 C 237.676,268.831 239.009,270.331 237.5,274C 236.207,274.49 234.873,274.657 233.5,274.5C 233.5,272.833 233.5,271.167 233.5,269.5 Z"/></g>
<g><path style="opacity:1" fill="#adc4a4" d="M 259.5,271.5 C 261.442,276.056 262.108,281.056 261.5,286.5C 260.448,286.649 259.448,286.483 258.5,286C 259.469,281.263 259.803,276.43 259.5,271.5 Z"/></g>
<g><path style="opacity:1" fill="#b1c9a8" d="M 250.5,271.5 C 256.997,271.18 259.164,274.18 257,280.5C 253.844,283.399 251.178,283.065 249,279.5C 248.109,276.502 248.609,273.836 250.5,271.5 Z"/></g>
<g><path style="opacity:1" fill="#a3bb9a" d="M 367.5,270.5 C 370.988,270.705 374.321,271.539 377.5,273C 374.469,273.495 371.469,273.329 368.5,272.5C 368.33,273.822 368.663,274.989 369.5,276C 371.715,276.17 373.715,276.837 375.5,278C 372.842,278.073 370.176,277.74 367.5,277C 366.395,274.88 366.395,272.713 367.5,270.5 Z"/></g>
<g><path style="opacity:1" fill="#1a3613" d="M 251.5,272.5 C 252.822,272.33 253.989,272.663 255,273.5C 255.497,275.81 255.663,278.143 255.5,280.5C 253.856,280.714 252.356,280.38 251,279.5C 250.444,277.115 250.61,274.782 251.5,272.5 Z"/></g>
<g><path style="opacity:1" fill="#bad1b1" d="M 242.5,271.5 C 244.199,271.34 245.866,271.506 247.5,272C 246.584,272.374 245.75,272.874 245,273.5C 244.821,276.553 244.321,279.553 243.5,282.5C 242.511,278.893 242.177,275.226 242.5,271.5 Z"/></g>
<g><path style="opacity:1" fill="#b0c7a6" d="M 267.5,270.5 C 271.352,271.187 273.019,273.521 272.5,277.5C 270.5,277.5 268.5,277.5 266.5,277.5C 266.5,278.5 266.5,279.5 266.5,280.5C 268.527,280.338 270.527,280.505 272.5,281C 269.863,283.074 267.363,282.907 265,280.5C 264.333,277.833 264.333,275.167 265,272.5C 265.995,271.934 266.828,271.267 267.5,270.5 Z"/></g>
<g><path style="opacity:1" fill="#183410" d="M 267.5,272.5 C 268.995,272.415 269.995,273.081 270.5,274.5C 269.167,275.833 267.833,275.833 266.5,274.5C 266.863,273.817 267.196,273.15 267.5,272.5 Z"/></g>
<g><path style="opacity:1" fill="#aac2a1" d="M 275.5,271.5 C 278.604,270.971 280.937,271.971 282.5,274.5C 282.167,274.833 281.833,275.167 281.5,275.5C 280.725,273.525 279.391,272.691 277.5,273C 276.565,275.381 276.232,277.881 276.5,280.5C 278.492,280.672 280.158,280.005 281.5,278.5C 282.594,279.868 282.26,281.035 280.5,282C 278.741,282.798 277.074,282.631 275.5,281.5C 274.174,278.136 274.174,274.803 275.5,271.5 Z"/></g>
<g><path style="opacity:1" fill="#9eb695" d="M 364.5,281.5 C 367.96,281.525 371.294,282.192 374.5,283.5C 373.846,285.115 373.346,286.782 373,288.5C 371.951,289.517 370.784,289.684 369.5,289C 368.072,287.084 367.072,284.917 366.5,282.5C 365.833,283.833 365.167,285.167 364.5,286.5C 363.334,284.833 363.334,283.166 364.5,281.5 Z"/></g>
<g><path style="opacity:1" fill="#233f1b" d="M 369.5,283.5 C 372.774,284.379 373.107,285.712 370.5,287.5C 369.571,286.311 369.238,284.978 369.5,283.5 Z"/></g>
<g><path style="opacity:1" fill="#abc3a2" d="M 361.5,290.5 C 364.852,291.008 367.852,292.342 370.5,294.5C 370.167,294.833 369.833,295.167 369.5,295.5C 367.021,293.924 364.354,292.924 361.5,292.5C 361.281,293.675 361.614,294.675 362.5,295.5C 364.664,296.414 366.664,297.581 368.5,299C 363.787,298.317 359.454,296.484 355.5,293.5C 355.833,293.167 356.167,292.833 356.5,292.5C 359.263,295.281 360.929,294.615 361.5,290.5 Z"/></g>
<g><path style="opacity:1" fill="#9eb694" d="M 353.5,298.5 C 358.833,299.167 358.833,299.833 353.5,300.5C 353.286,302.144 353.62,303.644 354.5,305C 356.909,306.707 359.575,307.54 362.5,307.5C 362.08,305.326 362.08,303.326 362.5,301.5C 365.128,303.915 365.128,306.415 362.5,309C 357.298,309.4 353.632,307.234 351.5,302.5C 351.752,300.927 352.418,299.594 353.5,298.5 Z"/></g>
<g><path style="opacity:1" fill="#a4bc9b" d="M 346.5,314.5 C 352.17,315.166 352.836,317.333 348.5,321C 349.793,321.49 351.127,321.657 352.5,321.5C 352.281,320.325 352.614,319.325 353.5,318.5C 354.74,321.297 353.74,322.963 350.5,323.5C 345.15,321.915 343.817,318.915 346.5,314.5 Z"/></g>
<g><path style="opacity:1" fill="#1d3915" d="M 346.5,316.5 C 349.957,316.667 350.29,317.667 347.5,319.5C 346.614,318.675 346.281,317.675 346.5,316.5 Z"/></g>
<g><path style="opacity:1" fill="#aec7a6" d="M 337.5,321.5 C 338.313,320.347 339.313,320.347 340.5,321.5C 342.5,324.167 344.833,326.5 347.5,328.5C 347.167,328.833 346.833,329.167 346.5,329.5C 344.684,328.185 343.017,326.685 341.5,325C 340.552,324.517 339.552,324.351 338.5,324.5C 338.737,323.209 338.404,322.209 337.5,321.5 Z"/></g>
<g><path style="opacity:1" fill="#a7bf9d" d="M 334.5,326.5 C 337.563,328.051 340.229,330.218 342.5,333C 341.167,333.667 340.167,334.667 339.5,336C 338.056,336.781 336.723,336.614 335.5,335.5C 335.255,333.078 335.255,330.745 335.5,328.5C 334.201,329.09 333.368,330.09 333,331.5C 332.387,329.505 332.887,327.838 334.5,326.5 Z"/></g>
<g><path style="opacity:1" fill="#1e3a16" d="M 336.5,331.5 C 337.5,331.5 338.5,331.5 339.5,331.5C 339.5,332.5 339.5,333.5 339.5,334.5C 338.5,334.5 337.5,334.5 336.5,334.5C 336.5,333.5 336.5,332.5 336.5,331.5 Z"/></g>
<g><path style="opacity:1" fill="#a5bd9c" d="M 325.5,333.5 C 326.873,333.343 328.207,333.51 329.5,334C 331.032,336.034 332.365,338.201 333.5,340.5C 333.167,340.833 332.833,341.167 332.5,341.5C 331.342,338.829 329.509,336.829 327,335.5C 326.5,335.833 326,336.167 325.5,336.5C 330.617,345.359 329.783,345.693 323,337.5C 322.308,338.025 321.808,338.692 321.5,339.5C 322.635,341.799 323.968,343.966 325.5,346C 325.167,346.167 324.833,346.333 324.5,346.5C 322.34,344.169 320.34,341.669 318.5,339C 321.02,337.303 323.353,335.47 325.5,333.5 Z"/></g>
<g><path style="opacity:1" fill="#87a17e" d="M 312.5,337.5 C 314.337,337.639 314.67,338.306 313.5,339.5C 312.702,339.043 312.369,338.376 312.5,337.5 Z"/></g>
<g><path style="opacity:1" fill="#aac2a1" d="M 314.5,340.5 C 316.642,342.765 318.309,345.432 319.5,348.5C 319.167,348.833 318.833,349.167 318.5,349.5C 316.342,346.852 315.008,343.852 314.5,340.5 Z"/></g>
<g><path style="opacity:1" fill="#a6be9d" d="M 307.5,339.5 C 310.989,343.143 312.822,347.476 313,352.5C 310.62,348.406 308.787,344.073 307.5,339.5 Z"/></g>
<g><path style="opacity:1" fill="#a4bc9b" d="M 233.5,345.5 C 234.124,345.917 234.457,346.584 234.5,347.5C 233.5,350.167 232.5,352.833 231.5,355.5C 231.066,352.084 231.733,348.751 233.5,345.5 Z"/></g>
<g><path style="opacity:1" fill="#a0b896" d="M 259.5,348.5 C 261.026,349.105 262.026,350.271 262.5,352C 261.342,353.009 260.675,354.342 260.5,356C 261.073,358.006 261.073,359.84 260.5,361.5C 259.914,361.291 259.414,360.957 259,360.5C 258.782,357.574 258.282,354.74 257.5,352C 258.973,351.29 259.64,350.124 259.5,348.5 Z"/></g>
<g><path style="opacity:1" fill="#9db694" d="M 271.5,351.5 C 273.792,351.244 275.959,351.577 278,352.5C 278.821,355.554 278.655,358.554 277.5,361.5C 276.52,358.914 276.187,356.247 276.5,353.5C 275.5,353.5 274.5,353.5 273.5,353.5C 273.813,356.247 273.48,358.914 272.5,361.5C 271.513,358.232 271.18,354.898 271.5,351.5 Z"/></g>
<g><path style="opacity:1" fill="#a6be9c" d="M 299.5,342.5 C 302.022,342.128 304.022,342.961 305.5,345C 303.575,344.865 301.575,344.698 299.5,344.5C 299.091,348.62 300.424,351.954 303.5,354.5C 304.852,353.482 305.852,352.149 306.5,350.5C 307.747,352.006 307.747,353.506 306.5,355C 304.231,355.758 302.064,355.591 300,354.5C 297.201,350.448 297.035,346.448 299.5,342.5 Z"/></g>
<g><path style="opacity:1" fill="#a1b998" d="M 239.5,347.5 C 241.5,347.833 243.5,348.167 245.5,348.5C 244.391,351.733 243.558,355.066 243,358.5C 241.043,362.108 238.543,362.441 235.5,359.5C 237.565,359.738 239.565,359.238 241.5,358C 238.458,358.192 236.791,356.859 236.5,354C 236.84,351.489 237.84,349.322 239.5,347.5 Z"/></g>
<g><path style="opacity:1" fill="#183411" d="M 239.5,349.5 C 240.5,349.5 241.5,349.5 242.5,349.5C 242.682,351.591 242.348,353.591 241.5,355.5C 240.675,356.386 239.675,356.719 238.5,356.5C 238.448,354.097 238.781,351.764 239.5,349.5 Z"/></g>
<g><path style="opacity:1" fill="#a6be9c" d="M 283.5,350.5 C 285.766,350.141 287.599,350.808 289,352.5C 290.213,355.768 290.546,359.101 290,362.5C 288.445,364.515 286.611,364.848 284.5,363.5C 285.689,362.571 287.022,362.238 288.5,362.5C 288.911,359.724 288.078,359.057 286,360.5C 284.739,360.241 283.739,359.574 283,358.5C 282.278,355.739 282.445,353.073 283.5,350.5 Z"/></g>
<g><path style="opacity:1" fill="#1d3815" d="M 284.5,351.5 C 285.496,351.414 286.329,351.748 287,352.5C 287.495,354.473 287.662,356.473 287.5,358.5C 283.659,357.516 282.659,355.183 284.5,351.5 Z"/></g>
<g><path style="opacity:1" fill="#95ae8c" d="M 265.5,351.5 C 266.777,352.694 267.444,354.36 267.5,356.5C 267.167,358.167 266.833,359.833 266.5,361.5C 265.513,358.232 265.18,354.898 265.5,351.5 Z"/></g>
</svg>
